# xmcd
#
# Track frame offsets: 
#        150
#        13272
#        31258
#        51487
#        70630
#        85317
#        98259
#        123590
#        154669
#        166842
#        189912
#        205537
#        222172
#        238330
#        253914
#        273595
#        297639
#
# Disc length: 4507 seconds
#
# Revision: 3
# Processed by: cddbd v1.5.2PL0 Copyright (c) Steve Scherf et al.
# Submitted via: ExactAudioCopy v0.99pb5
#
DISCID=f3119911
DTITLE=Various Artist - Guitares Jazz Disc 2
DYEAR=2007
DGENRE=Jazz
TTITLE0=Frederic Belinsky - Le Grand Blond Avec Une Chaussure Noire
TTITLE1=Sylvain Luc and Biréli Lagrène - Isn't She Lovely
TTITLE2=Rodolphe Raffalli - Les Copains d'Abord
TTITLE3=Jean Charles Capon - Christian Escoude - Pierre Boussaguet - I
TTITLE3=ndifférence
TTITLE4=John Mc Laughlin - Goodbye Pork Pie Hat
TTITLE5=Ry Cooder - Paris Texas
TTITLE6=Tchavolo Schmitt - What a Difference a Day Made
TTITLE7=Boulout and Elios Ferre - Alain Jean-Marie - Ornithology
TTITLE8=Django Reinhardt - Si Tu Savais
TTITLE9=Ferenc Snetberger - Childhood
TTITLE10=Dorado Schmitt - Samba Dorado
TTITLE11=Romane - Destinée
TTITLE12=Sylvain Luc - Light My Fire
TTITLE13=Andrea Terrano - Morning Music
TTITLE14=Alexandre Lagoya and Claude Bolling - Africaine
TTITLE15=Raoul Bjorkenheim and Nicky Skopelitis - Sacrament (edit)
TTITLE16=Baden Powell - Phillipe Baden Powell - Benjamin Legrand -  Be
TTITLE16=rimbau - Bidonville
EXTD=
EXTT0=
EXTT1=
EXTT2=
EXTT3=
EXTT4=
EXTT5=
EXTT6=
EXTT7=
EXTT8=
EXTT9=
EXTT10=
EXTT11=
EXTT12=
EXTT13=
EXTT14=
EXTT15=
EXTT16=
PLAYORDER=
